<?xml version="1.0" encoding="utf-8"?>
<!-- Generator: Adobe Illustrator 17.0.0, SVG Export Plug-In . SVG Version: 6.00 Build 0)  -->
<!DOCTYPE svg PUBLIC "-//W3C//DTD SVG 1.1//EN" "http://www.w3.org/Graphics/SVG/1.1/DTD/svg11.dtd">
<svg version="1.1" id="Layer_1" xmlns="http://www.w3.org/2000/svg" xmlns:xlink="http://www.w3.org/1999/xlink" x="0px" y="0px"
	 width="128px" height="128px" viewBox="0 0 128 128" enable-background="new 0 0 128 128" xml:space="preserve">
<g>
	<g>
		<defs>
			<rect id="SVGID_1_" x="20.758" y="5.443" width="86.484" height="117.114"/>
		</defs>
		<clipPath id="SVGID_2_">
			<use xlink:href="#SVGID_1_"  overflow="visible"/>
		</clipPath>
		<path clip-path="url(#SVGID_2_)" fill="#F7931A" d="M56.01,121.969c-2.907-0.468-6.904-1.378-8.882-2.02
			c-10.856-3.53-21.274-11.474-25.019-19.08c-4.839-7.496,4.499-12.713,9.373-9.47c1.086,0.771,3.547,3.533,5.472,6.137
			c6.654,8.996,14.241,14.139,24.359,16.513c6.565,1.538,18.266,1.033,23.667-1.022c5.754-2.189,11.404-6.373,14.967-11.083
			c1.719-2.272,5.347-8.835,5.285-8.504c-1.163,6.353-8.879,15.656-12.084,18.482C84.002,119.985,68.958,124.053,56.01,121.969
			L56.01,121.969z"/>
	</g>
	<path fill="#F7931A" d="M106.911,78.071c0,18.716-15.173,33.888-33.889,33.888S39.135,96.787,39.135,78.071
		c0-18.718,15.172-33.89,33.888-33.89S106.911,59.353,106.911,78.071L106.911,78.071z"/>
	<path fill="#FFFFFF" d="M80.086,80.867c-2.038,4.082-4.821,5.693-8.35,4.835c-5.002-1.216-6.635-5.395-4.899-12.538
		c1.676-6.892,5.056-9.72,10.142-8.483c1.639,0.399,2.922,1.193,3.847,2.381c0.925,1.189,1.374,2.626,1.347,4.312l6.462,0.026
		c-0.104-2.6-0.69-4.73-1.758-6.388c-1.797-2.777-4.565-4.62-8.303-5.529c-4.627-1.125-8.589-0.447-11.885,2.033
		c-3.062,2.302-5.168,5.822-6.32,10.56c-1.084,4.46-0.79,8.395,0.883,11.804c1.786,3.672,4.853,6.036,9.202,7.094
		c-0.041,0.593-0.15,1.251-0.325,1.974c-0.534,2.195-1.794,3.052-3.781,2.569c-0.875-0.213-1.782-0.603-2.718-1.169l-0.684,2.814
		c1.258,0.938,2.533,1.565,3.826,1.879c1.584,0.385,2.954,0.273,4.11-0.336c1.156-0.61,1.925-1.699,2.307-3.269
		c0.247-1.014,0.377-2.337,0.391-3.967c5.163,0.314,9.172-2.104,12.028-7.252L80.086,80.867L80.086,80.867z"/>
	<path fill="#F7931A" d="M73.116,37.551c0,1.242-1.008,2.25-2.252,2.25c-1.244,0-2.252-1.008-2.252-2.25
		c0-1.244,1.009-2.252,2.252-2.252C72.108,35.299,73.116,36.307,73.116,37.551L73.116,37.551z"/>
	<path fill="#F7931A" d="M50.513,5.443c0,0-4.863,4.768-8.629,13.557c-3.763,8.789-6.429,21.596-2.032,37.677
		c9.218-11.048,22.647-13.459,22.647-13.459c-0.213-1.1-0.236-2.118-0.12-3.053l-19.237,2.486l-0.059-0.477l19.37-2.516
		c0.064-0.329,0.141-0.645,0.24-0.952l-19.788-3.47l0.088-0.463l19.877,3.47c0.113-0.287,0.232-0.567,0.373-0.834L44.2,28.657
		l0.194-0.433l19.087,8.755c1.242-2.043,3.311-3.415,5.465-4.05c-1.471-7.462-0.79-13.578-0.79-13.578s2.44,2.247,3.276,12.894
		c0,0,2.842,0.892,4.555,2.947c0.19-0.133,0.398-0.282,0.656-0.475c0.611-0.459,1.401-1.077,2.307-1.788
		c1.325-1.036,2.907-2.308,4.527-3.603c-1.13-1.722-2.437-3.39-3.901-4.659c0,0-0.1-4.967,5.762-16.17
		c-8.324,1.511-14.245,4.529-16.96,7.921c0,0-7.096-1.529-11.301,0C57.078,16.418,55.714,11.549,50.513,5.443L50.513,5.443z
		 M79.697,26.632c0,0-0.518,3.585-2.428,4.689c-1.911,1.103-3.73,1.239-4.438,0.016C73.199,27.217,77.485,26.531,79.697,26.632
		L79.697,26.632z M59.179,27.152c1.247-0.005,3.874,0.055,4.912,0.641c1.911,1.103,2.881,2.989,2.175,4.214
		c-0.707,1.223-2.824,1.311-4.735,0.208c-1.913-1.103-3.023-5.048-3.023-5.048S58.762,27.154,59.179,27.152L59.179,27.152z
		 M83.745,29.728c-1.612,1.284-3.195,2.54-4.512,3.573c-0.908,0.711-1.692,1.323-2.307,1.786c-0.257,0.194-0.452,0.341-0.641,0.477
		c0.102,0.144,0.194,0.292,0.282,0.447l8.845-3.38C84.919,31.692,84.367,30.703,83.745,29.728L83.745,29.728z M85.637,33.063
		l-8.845,3.38c0.092,0.195,0.173,0.401,0.24,0.61l9.901-1.251C86.576,34.996,86.166,34.095,85.637,33.063L85.637,33.063z
		 M87.141,36.265l-9.991,1.251c0.12,0.563,0.53,1.812,0.426,2.482c3.771-1.819,12.151,3.964,12.151,3.964
		S87.644,37.431,87.141,36.265L87.141,36.265z"/>
	<path fill="#F7931A" d="M94.005,20.839c0,0-4.263,3.475-8.725,7.057c-0.604,0.486-1.2,0.949-1.802,1.429
		c0.088,0.134,0.183,0.269,0.268,0.403c0.614-0.489,1.218-0.966,1.831-1.459c4.464-3.586,8.725-7.059,8.725-7.059L94.005,20.839z"/>
	<path fill="#F7931A" d="M96.088,28.551l-10.675,4.081c0.076,0.142,0.151,0.292,0.223,0.431l10.631-4.065L96.088,28.551z"/>
	<path fill="#F7931A" d="M97.83,34.433l-10.883,1.369c0.067,0.153,0.132,0.306,0.194,0.447L97.89,34.91L97.83,34.433z"/>
</g>
</svg>
